<svg height="1em" style="flex:none;line-height:1" viewBox="0 0 86 86" width="1em" xmlns="http://www.w3.org/2000/svg"><title>GreenPT</title><path d="M43 0C19.252 0 0 19.252 0 43s19.252 43 43 43 43-19.252 43-43S66.748 0 43 0Zm1.362 66.507c-12.864 0-23.292-10.493-23.292-23.435 0-12.943 10.428-23.435 23.292-23.435 12.863 0 23.291 10.492 23.291 23.435 0 12.942-10.428 23.435-23.291 23.435Z" fill="#9BE755"></path><path d="M56.604 78.833C37.066 78.833 21.226 62.79 21.226 43S37.066 7.167 56.604 7.167c4.368 0 8.533.84 12.396 2.306C61.728 3.558 52.506 0 42.453 0 19.007 0 0 19.252 0 43s19.007 43 42.453 43C52.506 86 61.728 82.442 69 76.527c-3.863 1.466-8.028 2.306-12.396 2.306Z" fill="#9BE755"></path><path d="M56.604 78.833C37.066 78.833 21.226 62.79 21.226 43S37.066 7.167 56.604 7.167c4.368 0 8.533.84 12.396 2.306C61.728 3.558 52.506 0 42.453 0 19.007 0 0 19.252 0 43s19.007 43 42.453 43C52.506 86 61.728 82.442 69 76.527c-3.863 1.466-8.028 2.306-12.396 2.306Z" fill="url(#greenpt-0)"></path><defs><linearGradient id="greenpt-0" x1="40" x2="56" y1="12" y2="76" gradientUnits="userSpaceOnUse"><stop stop-color="#FFFFFF" stop-opacity=".1"></stop><stop offset="1" stop-color="#000000" stop-opacity=".3"></stop></linearGradient></defs></svg>
